<svg xmlns="http://www.w3.org/2000/svg" viewBox="0 0 256 256" role="img" aria-label="Swaraj Exim">
  <defs>
    <linearGradient id="g" x1="0" x2="1" y1="0" y2="1">
      <stop offset="0%" stop-color="#2C5F2D"/>
      <stop offset="100%" stop-color="#97BC62"/>
    </linearGradient>
  </defs>
  <rect width="256" height="256" rx="28" fill="url(#g)"/>
  <g fill="#FFFFFF">
    <path d="M54 160c24-8 48-34 58-58 2-6-4-10-10-8-24 10-50 34-58 58-2 6 4 10 10 8z" opacity="0.9"/>
    <path d="M118 178c34-6 64-34 78-66 3-7-4-13-11-10-33 14-60 44-67 77-1 6 4 10 10 9z" opacity="0.9"/>
    <circle cx="196" cy="66" r="14" fill="#FFFFFF"/>
  </g>
  <text x="128" y="210" text-anchor="middle" font-family="Segoe UI, Roboto, Arial, sans-serif" font-size="28" font-weight="700" fill="#FFFFFF">SWARAJ EXIM</text>
</svg>

